<svg width="1180" height="650" viewBox="0 0 1180 650" fill="none" xmlns="http://www.w3.org/2000/svg">
  <rect width="1180" height="650" fill="#FDFCFA"/>
  <rect x="94" y="56" width="760" height="538" rx="6" fill="white"/>
  <text x="144" y="128" fill="#15120E" font-family="Georgia, serif" font-size="31" font-weight="600">Read articles and save words in context.</text>
  <text x="144" y="197" fill="#15120E" font-family="Georgia, serif" font-size="30">The proposal included an acceptable compromise</text>
  <text x="144" y="251" fill="#15120E" font-family="Georgia, serif" font-size="30">that could be reviewed later.</text>
  <rect x="535" y="166" width="149" height="42" rx="3" fill="#12100D"/>
  <text x="550" y="198" fill="white" font-family="Georgia, serif" font-size="30">acceptable</text>
  <rect x="340" y="246" width="432" height="324" rx="18" fill="#FDFCFA"/>
  <rect x="340" y="246" width="432" height="324" rx="18" stroke="#F1E8DD"/>
  <filter id="shadow" x="316" y="226" width="480" height="372" filterUnits="userSpaceOnUse" color-interpolation-filters="sRGB">
    <feDropShadow dx="0" dy="4" stdDeviation="12" flood-color="#2C2418" flood-opacity="0.20"/>
  </filter>
  <rect x="340" y="246" width="432" height="324" rx="18" fill="#FDFCFA" filter="url(#shadow)"/>
  <text x="378" y="306" fill="#2C2418" font-family="Georgia, serif" font-size="36" font-weight="700">acceptable</text>
  <text x="378" y="354" fill="#9A8B7A" font-family="Inter, Arial, sans-serif" font-size="18">/aek.sept.uh.buhl/</text>
  <circle cx="557" cy="345" r="18" fill="#F4EEE7" stroke="#EDE2D7"/>
  <path d="M552 345h-4v-5h4l5-4v18l-5-4z" fill="#9A8B7A"/>
  <path d="M562 340c3 3 3 7 0 10" stroke="#9A8B7A" stroke-width="2" stroke-linecap="round"/>
  <line x1="378" y1="382" x2="734" y2="382" stroke="#EDE2D7"/>
  <text x="378" y="429" fill="#C87B4A" font-family="Inter, Arial, sans-serif" font-size="20" font-weight="700">adjective.</text>
  <text x="484" y="429" fill="#2C2418" font-family="Inter, Arial, sans-serif" font-size="20">satisfactory and able to be agreed to</text>
  <text x="484" y="459" fill="#2C2418" font-family="Inter, Arial, sans-serif" font-size="20">or allowed</text>
  <text x="378" y="492" fill="#8C7E6E" font-family="Inter, Arial, sans-serif" font-size="19">可接受的</text>
  <rect x="378" y="510" width="90" height="24" rx="12" fill="#F9F6F1" stroke="#EDE2D7"/>
  <text x="390" y="527" fill="#8C7E6E" font-family="Inter, Arial, sans-serif" font-size="13">Definition: AI</text>
  <rect x="480" y="510" width="99" height="24" rx="12" fill="#F9F6F1" stroke="#EDE2D7"/>
  <text x="492" y="527" fill="#8C7E6E" font-family="Inter, Arial, sans-serif" font-size="13">Translation: AI</text>
  <rect x="895" y="56" width="190" height="538" rx="14" fill="#F9F6F1"/>
  <text x="930" y="130" fill="#2C2418" font-family="Inter, Arial, sans-serif" font-size="19" font-weight="700">WordMark</text>
  <text x="930" y="158" fill="#8C7E6E" font-family="Inter, Arial, sans-serif" font-size="14">Daily Vocabulary</text>
  <rect x="930" y="222" width="120" height="44" rx="10" fill="#CD7A45"/>
  <text x="953" y="250" fill="white" font-family="Inter, Arial, sans-serif" font-size="14" font-weight="700">Save word</text>
</svg>
