<svg width="760" height="560" viewBox="0 0 760 560" fill="none" xmlns="http://www.w3.org/2000/svg">
  <rect width="760" height="560" rx="24" fill="#FDFCFA"/>
  <filter id="s" x="0" y="0" width="760" height="560" filterUnits="userSpaceOnUse" color-interpolation-filters="sRGB">
    <feDropShadow dx="0" dy="6" stdDeviation="16" flood-color="#2C2418" flood-opacity="0.18"/>
  </filter>
  <rect x="24" y="24" width="712" height="512" rx="18" fill="#FDFCFA" filter="url(#s)"/>
  <rect x="58" y="56" width="46" height="46" rx="12" fill="#B96A3D"/>
  <text x="68" y="89" fill="white" font-family="Georgia, serif" font-size="30" font-weight="700">W</text>
  <text x="122" y="76" fill="#2C2418" font-family="Inter, Arial, sans-serif" font-size="25" font-weight="800">WordMark</text>
  <text x="122" y="101" fill="#8C7E6E" font-family="Inter, Arial, sans-serif" font-size="15">Daily Vocabulary</text>
  <rect x="624" y="56" width="54" height="54" rx="14" fill="#F9F6F1" stroke="#EDE2D7"/>
  <circle cx="647" cy="80" r="8" stroke="#8C7E6E" stroke-width="3"/>
  <path d="M653 86l9 9" stroke="#8C7E6E" stroke-width="3" stroke-linecap="round"/>
  <text x="94" y="150" fill="#C87B4A" font-family="Inter, Arial, sans-serif" font-size="17" font-weight="700">Today</text>
  <text x="244" y="150" fill="#8C7E6E" font-family="Inter, Arial, sans-serif" font-size="17" font-weight="700">History</text>
  <text x="396" y="150" fill="#8C7E6E" font-family="Inter, Arial, sans-serif" font-size="17" font-weight="700">Review</text>
  <text x="552" y="150" fill="#8C7E6E" font-family="Inter, Arial, sans-serif" font-size="17" font-weight="700">Settings</text>
  <line x1="58" y1="172" x2="678" y2="172" stroke="#EDE2D7"/>
  <line x1="86" y1="172" x2="150" y2="172" stroke="#C87B4A" stroke-width="3"/>
  <rect x="58" y="200" width="620" height="82" fill="#F8F1EA"/>
  <text x="108" y="233" fill="#2C2418" font-family="Inter, Arial, sans-serif" font-size="24" font-weight="800">2</text>
  <text x="90" y="261" fill="#8C7E6E" font-family="Inter, Arial, sans-serif" font-size="13">Total</text>
  <text x="258" y="233" fill="#2C2418" font-family="Inter, Arial, sans-serif" font-size="24" font-weight="800">2</text>
  <text x="235" y="261" fill="#8C7E6E" font-family="Inter, Arial, sans-serif" font-size="13">This week</text>
  <text x="422" y="233" fill="#0BA84A" font-family="Inter, Arial, sans-serif" font-size="24" font-weight="800">0</text>
  <text x="391" y="261" fill="#8C7E6E" font-family="Inter, Arial, sans-serif" font-size="13">Mastered</text>
  <text x="578" y="233" fill="#D56B1D" font-family="Inter, Arial, sans-serif" font-size="24" font-weight="800">0</text>
  <text x="548" y="261" fill="#8C7E6E" font-family="Inter, Arial, sans-serif" font-size="13">Due review</text>
  <text x="58" y="322" fill="#2C2418" font-family="Inter, Arial, sans-serif" font-size="15" font-weight="700">Today's words</text>
  <rect x="58" y="344" width="620" height="82" rx="14" fill="#FDFCFA" stroke="#EDE2D7"/>
  <text x="82" y="381" fill="#2C2418" font-family="Georgia, serif" font-size="30" font-weight="700">proposal</text>
  <text x="82" y="410" fill="#8C7E6E" font-family="Inter, Arial, sans-serif" font-size="15">/pruh-poh-zuhl/</text>
  <text x="218" y="391" fill="#2C2418" font-family="Inter, Arial, sans-serif" font-size="16">A plan or suggestion offered for consideration.</text>
  <rect x="58" y="444" width="620" height="82" rx="14" fill="#FDFCFA" stroke="#EDE2D7"/>
  <text x="82" y="481" fill="#2C2418" font-family="Georgia, serif" font-size="30" font-weight="700">pact</text>
  <text x="82" y="510" fill="#8C7E6E" font-family="Inter, Arial, sans-serif" font-size="15">/pakt/</text>
  <text x="218" y="491" fill="#2C2418" font-family="Inter, Arial, sans-serif" font-size="16">An agreement; a compact; a covenant.</text>
</svg>
