<svg width="760" height="620" viewBox="0 0 760 620" fill="none" xmlns="http://www.w3.org/2000/svg">
  <rect width="760" height="620" rx="24" fill="#FDFCFA"/>
  <rect x="54" y="42" width="652" height="536" rx="18" fill="#FDFCFA" stroke="#EDE2D7"/>
  <text x="88" y="92" fill="#2C2418" font-family="Inter, Arial, sans-serif" font-size="26" font-weight="800">WordMark Settings</text>
  <text x="88" y="126" fill="#8C7E6E" font-family="Inter, Arial, sans-serif" font-size="15">Configure AI-enhanced lookup and privacy-first local storage.</text>
  <rect x="88" y="162" width="584" height="346" rx="16" fill="#FDFCFA" stroke="#EDE2D7"/>
  <text x="118" y="207" fill="#2C2418" font-family="Inter, Arial, sans-serif" font-size="20" font-weight="800">AI Enhanced Lookup</text>
  <text x="118" y="237" fill="#8C7E6E" font-family="Inter, Arial, sans-serif" font-size="15">Use a Chat Completions-compatible model for better definitions.</text>
  <rect x="588" y="193" width="56" height="30" rx="15" fill="#CD7A45"/>
  <circle cx="629" cy="208" r="13" fill="white"/>
  <text x="118" y="288" fill="#8C7E6E" font-family="Inter, Arial, sans-serif" font-size="15" font-weight="700">AI Mode</text>
  <rect x="118" y="304" width="236" height="56" rx="12" fill="#FFF9F4" stroke="#E29A6B"/>
  <text x="173" y="339" fill="#9B5A3A" font-family="Inter, Arial, sans-serif" font-size="16" font-weight="800">Use AI to optimize</text>
  <rect x="374" y="304" width="236" height="56" rx="12" fill="#FDFCFA" stroke="#EDE2D7"/>
  <text x="435" y="339" fill="#8C7E6E" font-family="Inter, Arial, sans-serif" font-size="16" font-weight="800">Always use AI</text>
  <text x="118" y="397" fill="#8C7E6E" font-family="Inter, Arial, sans-serif" font-size="15" font-weight="700">Model</text>
  <rect x="118" y="414" width="492" height="52" rx="12" fill="#F9F6F1" stroke="#EDE2D7"/>
  <text x="140" y="447" fill="#2C2418" font-family="Inter, Arial, sans-serif" font-size="17">deepseek-v4-flash</text>
  <text x="118" y="495" fill="#8C7E6E" font-family="Inter, Arial, sans-serif" font-size="15" font-weight="700">API Base URL</text>
  <rect x="118" y="512" width="492" height="52" rx="12" fill="#F9F6F1" stroke="#EDE2D7"/>
  <text x="140" y="545" fill="#2C2418" font-family="Inter, Arial, sans-serif" font-size="17">https://api.deepseek.com</text>
</svg>
